<?xml version="1.0" standalone="no"?><svg xmlns="http://www.w3.org/2000/svg" viewBox="0 0 1440 320"><path fill="#0079FF" fill-opacity="1" d="M0,64L26.7,58.7C53.3,53,107,43,160,64C213.3,85,267,139,320,149.3C373.3,160,427,128,480,106.7C533.3,85,587,75,640,85.3C693.3,96,747,128,800,133.3C853.3,139,907,117,960,106.7C1013.3,96,1067,96,1120,85.3C1173.3,75,1227,53,1280,48C1333.3,43,1387,53,1413,58.7L1440,64L1440,320L1413.3,320C1386.7,320,1333,320,1280,320C1226.7,320,1173,320,1120,320C1066.7,320,1013,320,960,320C906.7,320,853,320,800,320C746.7,320,693,320,640,320C586.7,320,533,320,480,320C426.7,320,373,320,320,320C266.7,320,213,320,160,320C106.7,320,53,320,27,320L0,320Z"></path></svg>